<?xml version="1.0" encoding="UTF-8" standalone="no"?>
<!DOCTYPE svg PUBLIC "-//W3C//DTD SVG 20010904//EN"
              "http://www.w3.org/TR/2001/REC-SVG-20010904/DTD/svg10.dtd">

<svg xmlns="http://www.w3.org/2000/svg"
     width="364.727mm" height="211.287mm"
     viewBox="0 0 1034 599">
  <path id="Selection"
        fill="none" stroke="black" stroke-width="1"
        d="M 390.00,55.00
           C 390.00,55.00 419.17,46.77 419.17,46.77
             419.17,46.77 427.00,46.23 427.00,46.23
             427.00,46.23 448.75,42.29 448.75,42.29
             448.75,42.29 456.00,42.29 456.00,42.29
             456.00,42.29 481.00,37.85 481.00,37.85
             481.00,37.85 488.00,37.85 488.00,37.85
             488.00,37.85 497.00,36.91 497.00,36.91
             497.00,36.91 504.00,35.72 504.00,35.72
             504.00,35.72 512.00,36.50 512.00,36.50
             512.00,36.50 531.67,36.50 531.67,36.50
             539.53,36.17 547.26,37.59 555.00,38.70
             555.00,38.70 576.00,40.96 576.00,40.96
             576.00,40.96 600.00,46.57 600.00,46.57
             600.00,46.57 608.58,49.84 608.58,49.84
             611.07,50.52 613.68,50.13 619.00,51.89
             619.00,51.89 635.00,58.55 635.00,58.55
             635.00,58.55 641.00,61.83 641.00,61.83
             641.00,61.83 649.00,64.65 649.00,64.65
             649.00,64.65 659.17,70.62 659.17,70.62
             659.17,70.62 665.72,73.03 665.72,73.03
             665.72,73.03 692.83,89.53 692.83,89.53
             692.83,89.53 700.01,93.59 700.01,93.59
             700.01,93.59 709.28,101.62 709.28,101.62
             709.28,101.62 716.34,106.72 716.34,106.72
             735.80,122.40 753.21,140.93 767.71,161.24
             767.71,161.24 776.09,175.01 776.09,175.01
             776.09,175.01 789.19,197.00 789.19,197.00
             789.19,197.00 793.66,208.00 793.66,208.00
             801.05,224.68 808.47,242.36 813.26,259.99
             813.26,259.99 814.18,265.42 814.18,265.42
             814.18,265.42 817.84,275.00 817.84,275.00
             817.84,275.00 822.00,295.00 822.00,295.00
             822.00,295.00 824.32,303.00 824.32,303.00
             824.32,303.00 827.66,319.00 827.66,319.00
             827.66,319.00 828.61,327.00 828.61,327.00
             828.61,327.00 830.23,332.96 830.23,332.96
             830.23,332.96 830.23,338.28 830.23,338.28
             830.52,340.84 831.50,341.24 831.78,345.58
             832.13,351.11 832.37,364.29 834.53,369.00
             837.11,374.64 849.78,382.59 855.00,386.51
             864.98,394.01 873.74,403.17 882.61,411.87
             882.61,411.87 889.97,421.57 889.97,421.57
             889.97,421.57 903.09,437.00 903.09,437.00
             903.09,437.00 912.63,453.17 912.63,453.17
             912.63,453.17 915.17,460.00 915.17,460.00
             915.17,460.00 920.90,472.00 920.90,472.00
             925.51,485.32 929.12,509.84 929.00,524.00
             929.00,524.00 928.48,542.00 928.48,542.00
             927.17,548.16 921.85,562.58 918.51,567.83
             918.51,567.83 913.40,574.04 913.40,574.04
             913.40,574.04 908.73,580.70 908.73,580.70
             899.89,590.01 883.71,596.13 871.00,596.79
             865.79,597.06 852.05,594.86 847.00,593.16
             847.00,593.16 837.00,589.00 837.00,589.00
             836.52,591.15 835.52,595.82 834.07,597.40
             831.88,599.78 823.28,599.00 820.00,599.00
             820.00,599.00 820.70,577.00 820.70,577.00
             819.64,572.12 811.15,558.27 808.68,553.00
             806.25,547.82 803.39,534.93 802.12,529.00
             801.27,525.06 800.15,509.53 801.60,506.14
             802.47,504.10 803.28,503.97 805.00,503.00
             805.00,503.00 815.69,534.00 815.69,534.00
             815.69,534.00 822.56,550.00 822.56,550.00
             825.56,556.80 825.17,557.33 829.67,564.00
             837.13,575.06 851.20,583.86 865.00,582.00
             869.90,585.07 878.89,582.06 884.00,580.10
             901.74,573.31 915.09,552.90 915.14,534.00
             915.14,534.00 915.66,525.00 915.66,525.00
             915.66,525.00 915.16,510.00 915.16,510.00
             915.40,491.29 907.37,471.03 898.34,455.00
             898.34,455.00 893.59,446.00 893.59,446.00
             893.59,446.00 885.37,436.00 885.37,436.00
             885.37,436.00 874.65,422.17 874.65,422.17
             874.65,422.17 861.96,409.00 861.96,409.00
             853.61,400.34 844.13,392.80 834.72,385.34
             831.42,382.74 822.88,377.24 821.12,374.13
             818.83,370.08 818.58,360.50 817.68,356.00
             817.68,356.00 814.07,341.00 814.07,341.00
             814.07,341.00 812.81,330.00 812.81,330.00
             812.81,330.00 809.02,313.00 809.02,313.00
             809.02,313.00 803.23,288.00 803.23,288.00
             803.23,288.00 801.52,279.00 801.52,279.00
             801.52,279.00 798.22,271.00 798.22,271.00
             798.22,271.00 790.50,243.00 790.50,243.00
             790.50,243.00 784.05,228.00 784.05,228.00
             784.05,228.00 774.25,204.00 774.25,204.00
             774.25,204.00 762.20,182.18 762.20,182.18
             762.20,182.18 758.69,177.49 758.69,177.49
             758.69,177.49 752.43,167.00 752.43,167.00
             734.44,141.24 706.24,116.06 679.72,99.30
             679.72,99.30 673.17,96.09 673.17,96.09
             673.17,96.09 665.99,90.80 665.99,90.80
             665.99,90.80 650.00,83.70 650.00,83.70
             650.00,83.70 642.00,78.98 642.00,78.98
             642.00,78.98 619.00,68.81 619.00,68.81
             619.00,68.81 582.00,58.33 582.00,58.33
             582.00,58.33 568.00,56.17 568.00,56.17
             568.00,56.17 561.00,54.25 561.00,54.25
             561.00,54.25 525.00,51.32 525.00,51.32
             525.00,51.32 512.00,51.90 512.00,51.90
             512.00,51.90 504.00,51.13 504.00,51.13
             504.00,51.13 493.00,52.40 493.00,52.40
             481.56,52.48 470.21,54.84 459.00,56.68
             459.00,56.68 452.00,57.47 452.00,57.47
             452.00,57.47 447.00,59.00 447.00,59.00
             447.00,59.00 430.91,61.17 430.91,61.17
             430.91,61.17 422.00,64.57 422.00,64.57
             422.00,64.57 410.00,67.41 410.00,67.41
             410.00,67.41 398.00,71.37 398.00,71.37
             398.00,71.37 390.00,73.04 390.00,73.04
             384.17,74.78 374.66,79.76 369.00,82.53
             360.12,86.87 347.20,92.36 341.00,100.00
             341.00,100.00 339.00,99.00 339.00,99.00
             339.00,99.00 324.28,110.37 324.28,110.37
             324.28,110.37 286.29,144.29 286.29,144.29
             286.29,144.29 275.03,157.55 275.03,157.55
             275.03,157.55 258.66,176.17 258.66,176.17
             258.66,176.17 252.56,185.58 252.56,185.58
             252.56,185.58 234.75,213.00 234.75,213.00
             234.75,213.00 228.07,223.00 228.07,223.00
             228.07,223.00 224.02,231.00 224.02,231.00
             224.02,231.00 214.92,249.00 214.92,249.00
             214.92,249.00 210.83,260.99 210.83,260.99
             210.83,260.99 207.39,268.17 207.39,268.17
             207.39,268.17 202.56,284.00 202.56,284.00
             202.56,284.00 195.04,311.58 195.04,311.58
             195.04,311.58 194.45,317.01 194.45,317.01
             193.04,324.28 191.50,319.65 192.00,334.00
             198.86,330.37 210.73,324.61 218.00,322.44
             236.93,316.78 268.59,316.86 286.00,327.01
             286.00,327.01 292.00,331.53 292.00,331.53
             294.63,333.46 298.02,334.77 300.17,336.98
             303.28,340.16 308.77,351.53 310.09,356.00
             314.45,370.72 313.58,364.66 313.78,379.08
             313.98,393.34 311.51,401.50 307.92,415.00
             307.92,415.00 306.05,422.83 306.05,422.83
             306.05,422.83 303.84,428.09 303.84,428.09
             303.84,428.09 302.20,434.00 302.20,434.00
             302.20,434.00 294.18,451.00 294.18,451.00
             294.18,451.00 284.88,466.09 284.88,466.09
             284.88,466.09 279.69,480.00 279.69,480.00
             277.67,485.24 269.25,504.05 266.37,507.96
             266.37,507.96 260.61,514.17 260.61,514.17
             255.44,519.86 254.04,523.08 246.00,525.00
             251.95,514.48 266.88,502.11 268.00,484.00
             265.58,487.93 252.49,498.14 248.00,498.97
             245.75,499.38 244.95,498.77 243.00,498.00
             246.12,489.32 248.92,488.53 254.83,482.00
             262.19,473.87 269.24,465.87 275.71,457.00
             284.04,445.60 282.93,443.67 287.11,431.91
             294.51,411.10 303.13,381.75 295.87,360.04
             295.23,358.13 289.89,348.95 288.53,347.63
             282.16,341.43 268.05,334.16 259.00,333.92
             259.00,333.92 248.00,333.18 248.00,333.18
             248.00,333.18 241.09,333.85 241.09,333.85
             241.09,333.85 223.00,336.12 223.00,336.12
             223.00,336.12 212.00,341.61 212.00,341.61
             198.42,347.68 198.65,347.35 186.58,356.27
             186.58,356.27 181.51,359.94 181.51,359.94
             181.51,359.94 175.69,366.72 175.69,366.72
             172.00,370.67 168.80,373.41 165.52,377.93
             161.54,383.41 162.24,384.01 159.56,388.83
             159.56,388.83 155.13,396.01 155.13,396.01
             155.13,396.01 142.44,429.00 142.44,429.00
             139.52,438.86 139.93,440.59 138.85,450.00
             138.85,450.00 137.07,465.00 137.07,465.00
             137.01,473.65 139.70,480.82 142.11,488.91
             143.17,492.46 142.98,494.01 144.79,498.00
             144.79,498.00 150.03,507.00 150.03,507.00
             152.04,510.13 158.15,517.98 161.04,520.09
             164.80,522.83 174.77,527.74 176.69,531.18
             178.47,534.39 178.02,542.15 177.84,546.00
             177.84,546.00 177.84,582.96 177.84,582.96
             177.84,582.96 177.84,599.00 177.84,599.00
             177.84,599.00 165.73,599.00 165.73,599.00
             165.73,599.00 165.73,569.00 165.73,569.00
             165.73,569.00 165.73,561.09 165.73,561.09
             165.73,561.09 165.73,555.83 165.73,555.83
             165.73,555.83 165.73,545.58 165.73,545.58
             165.73,545.58 165.73,541.09 165.73,541.09
             164.76,537.33 160.07,536.28 157.04,534.62
             152.12,531.91 146.88,527.18 143.18,523.00
             143.18,523.00 134.13,511.00 134.13,511.00
             134.13,511.00 131.72,505.00 131.72,505.00
             131.72,505.00 128.02,498.00 128.02,498.00
             128.02,498.00 126.22,490.00 126.22,490.00
             126.22,490.00 124.38,484.00 124.38,484.00
             124.38,484.00 123.79,477.00 123.79,477.00
             123.29,473.43 122.17,472.16 122.08,468.00
             121.94,462.18 123.64,442.47 125.03,437.00
             125.03,437.00 129.38,423.00 129.38,423.00
             129.38,423.00 130.99,416.00 130.99,416.00
             134.58,404.46 139.98,393.43 145.77,382.91
             145.77,382.91 150.23,374.00 150.23,374.00
             155.46,365.50 159.04,361.42 165.51,354.07
             168.42,350.77 172.66,348.14 174.26,344.00
             174.26,344.00 179.71,311.00 179.71,311.00
             179.71,311.00 182.25,302.00 182.25,302.00
             182.25,302.00 185.92,286.00 185.92,286.00
             185.92,286.00 191.50,268.00 191.50,268.00
             191.50,268.00 194.99,256.00 194.99,256.00
             202.26,236.87 212.10,219.42 222.68,202.00
             222.68,202.00 228.39,192.00 228.39,192.00
             228.39,192.00 237.20,179.00 237.20,179.00
             237.20,179.00 240.63,173.00 240.63,173.00
             244.97,166.63 250.36,160.78 255.41,155.00
             255.41,155.00 264.21,144.00 264.21,144.00
             264.21,144.00 279.01,128.10 279.01,128.10
             279.01,128.10 285.54,122.72 285.54,122.72
             285.54,122.72 297.00,111.17 297.00,111.17
             297.00,111.17 323.42,90.58 323.42,90.58
             323.42,90.58 330.91,86.13 330.91,86.13
             338.05,81.30 341.65,77.83 349.96,73.64
             349.96,73.64 357.09,70.83 357.09,70.83
             362.00,68.23 364.54,65.51 370.00,63.44
             376.08,61.13 384.77,59.08 390.00,55.00 Z" />
</svg>
